<?xml version="1.0" standalone="no"?>
<!DOCTYPE svg PUBLIC "-//W3C//DTD SVG 20010904//EN"
 "http://www.w3.org/TR/2001/REC-SVG-20010904/DTD/svg10.dtd">
<svg version="1.0" xmlns="http://www.w3.org/2000/svg"
 width="512.000000pt" height="512.000000pt" viewBox="0 0 512.000000 512.000000"
 preserveAspectRatio="xMidYMid meet">
<metadata>
Created by potrace 1.14, written by Peter Selinger 2001-2017
</metadata>
<g transform="translate(0.000000,512.000000) scale(0.100000,-0.100000)"
fill="#000000" stroke="none">
<path d="M831 5104 c-159 -43 -280 -173 -311 -334 -15 -77 -14 -2392 1 -2462
37 -173 171 -305 343 -337 39 -7 265 -11 649 -11 l589 0 -5 -22 c-4 -13 -30
-107 -59 -210 l-53 -188 -137 0 -138 0 0 -90 0 -90 850 0 850 0 0 90 0 90
-137 0 -138 0 -53 188 c-29 103 -55 197 -59 210 l-5 22 589 0 c384 0 610 4
649 11 172 32 306 164 343 337 15 70 16 2385 1 2462 -31 166 -167 305 -328
339 -38 8 -536 11 -1720 10 -1424 0 -1675 -2 -1721 -15z m3409 -165 c72 -15
129 -62 165 -134 l30 -60 0 -1005 0 -1005 -1878 -3 -1878 -2 3 1012 3 1013 27
51 c33 63 87 110 148 129 38 11 311 14 1687 14 1152 1 1657 -2 1693 -10z m190
-2485 c0 -59 -5 -125 -12 -148 -16 -55 -99 -138 -154 -154 -60 -17 -3348 -17
-3408 0 -55 16 -138 99 -154 154 -7 23 -12 89 -12 148 l0 106 1870 0 1870 0 0
-106z m-1530 -726 c23 -84 45 -161 48 -170 4 -17 -19 -18 -388 -18 -369 0
-392 1 -388 18 3 9 25 86 48 170 l44 152 296 0 296 0 44 -152z"/>
<path d="M2477 3783 c-92 -324 -168 -593 -167 -598 0 -12 152 -56 161 -47 7 7
339 1165 339 1181 0 10 -123 51 -152 51 -10 0 -60 -161 -181 -587z"/>
<path d="M1735 4034 c-143 -118 -266 -223 -272 -232 -17 -20 -17 -74 0 -94 11
-15 502 -428 525 -442 8 -5 112 113 112 127 0 3 -95 84 -210 181 -116 96 -209
179 -208 183 2 4 96 85 211 180 114 95 207 176 207 180 0 3 -21 31 -47 62 -26
31 -49 59 -53 63 -3 5 -123 -89 -265 -208z"/>
<path d="M3072 4185 c-28 -35 -52 -66 -52 -69 0 -3 95 -84 210 -181 116 -97
210 -179 209 -183 0 -4 -90 -81 -200 -172 -110 -91 -205 -171 -211 -177 -13
-16 89 -146 106 -136 23 14 492 406 514 430 27 29 29 83 5 111 -14 15 -440
372 -513 429 -13 10 -24 1 -68 -52z"/>
<path d="M791 1164 c-21 -26 -21 -36 -21 -565 0 -295 3 -545 6 -554 18 -46
-15 -45 1279 -45 l1217 0 29 29 29 29 0 532 c0 560 -1 577 -45 594 -9 3 -569
6 -1245 6 l-1229 0 -20 -26z m2359 -569 l0 -425 -1105 0 -1105 0 0 425 0 425
1105 0 1105 0 0 -425z"/>
<path d="M1110 770 l0 -90 85 0 85 0 0 90 0 90 -85 0 -85 0 0 -90z"/>
<path d="M1450 770 l0 -90 90 0 91 0 -3 88 -3 87 -87 3 -88 3 0 -91z"/>
<path d="M1790 770 l0 -90 90 0 90 0 0 90 0 90 -90 0 -90 0 0 -90z"/>
<path d="M2130 770 l0 -90 90 0 90 0 0 90 0 90 -90 0 -90 0 0 -90z"/>
<path d="M2470 770 l0 -90 90 0 90 0 0 90 0 90 -90 0 -90 0 0 -90z"/>
<path d="M2810 770 l0 -90 90 0 90 0 0 90 0 90 -90 0 -90 0 0 -90z"/>
<path d="M1110 430 l0 -90 85 0 85 0 0 90 0 90 -85 0 -85 0 0 -90z"/>
<path d="M1450 430 l0 -90 600 0 600 0 0 90 0 90 -600 0 -600 0 0 -90z"/>
<path d="M2810 430 l0 -90 90 0 90 0 0 90 0 90 -90 0 -90 0 0 -90z"/>
<path d="M3795 1172 c-76 -26 -138 -67 -185 -119 -49 -56 -72 -97 -94 -172
-22 -76 -23 -479 -1 -565 32 -121 114 -217 235 -275 70 -33 82 -36 170 -36 69
0 109 5 145 19 130 49 228 151 266 277 19 62 20 88 17 321 l-3 253 -31 66
c-53 112 -144 194 -258 232 -66 22 -195 22 -261 -1z m241 -180 c46 -24 94 -73
120 -122 16 -30 19 -64 22 -237 4 -234 -4 -294 -52 -356 -112 -147 -345 -125
-427 40 -23 46 -24 57 -24 273 0 252 5 278 63 342 35 39 72 63 122 79 40 13
133 3 176 -19z"/>
<path d="M3840 770 l0 -90 85 0 85 0 0 90 0 90 -85 0 -85 0 0 -90z"/>
</g>
</svg>
